HIERARCHY
ROOT Hips
{
	OFFSET 0.00000 0.00000 0.00000
	CHANNELS 6 Xposition Yposition Zposition Yrotation Zrotation Xrotation 
	JOINT Lumbar
	{
		OFFSET 0 0 0
		CHANNELS 3 Zrotation Xrotation Yrotation
		JOINT Neck
		{
			OFFSET 0.00 0.2701 0.00
			CHANNELS 3 Zrotation Xrotation Yrotation
			End Site
			{
				OFFSET 0.00 0.1379 0.00
			}
		}
		JOINT RightShoulder
		{
			OFFSET 0.0119 0.2289 0.1181
			CHANNELS 3 Zrotation Xrotation Yrotation
			JOINT RightElbow
			{
				OFFSET 0.00 -0.1475 0.00
				CHANNELS 2 Zrotation Yrotation
				JOINT RightWrist
				{
					OFFSET 0.00 -0.1605 0.00
					CHANNELS 2 Zrotation Xrotation
					End Site
					{
						OFFSET 0.0040 -0.1068 0.0006
					}
				}
			}
		}
		JOINT LeftShoulder
		{
			OFFSET 0.0119 0.2289 -0.1181
			CHANNELS 3 Zrotation Xrotation Yrotation
			JOINT LeftElbow
			{
				OFFSET 0.00 -0.1475 0.00
				CHANNELS 2 Zrotation Yrotation
				JOINT LeftWrist
				{
					OFFSET 0.00 -0.1605 0.00
					CHANNELS 2 Zrotation Xrotation
					End Site
					{
						OFFSET 0.0040 -0.1068 -0.0006
					}
				}
			}
		}
	}
	JOINT RightHip
	{
		OFFSET 0.0316 -0.0424 0.0458
		CHANNELS 3 Zrotation Xrotation Yrotation
		JOINT RightKnee
		{
			OFFSET 0.00 -0.2438 0.00
			CHANNELS 1 Zrotation
			JOINT RightAnkle
			{
				OFFSET 0.00 -0.2449 0.00
				CHANNELS 3 Zrotation Xrotation Yrotation
				End Site
				{
					OFFSET 0.1237 -0.0542 0.0051
				}
			}
		}
	}
	JOINT LeftHip
	{
		OFFSET 0.0316 -0.0424 -0.0458
		CHANNELS 3 Zrotation Xrotation Yrotation
		JOINT LeftKnee
		{
			OFFSET 0.00 -0.2438 0.00
			CHANNELS 1 Zrotation
			JOINT LeftAnkle
			{
				OFFSET 0.00 -0.2449 0.00
				CHANNELS 3 Zrotation Xrotation Yrotation
				End Site
				{
					OFFSET 0.1237 -0.0542 -0.0051
				}
			}
		}
	}
}
MOTION
Frames: 33
Frame Time: 0.02
0.24774 0.58395 0.54919 -206.05586 0 -5.10194 2.18523 1.36125 -0.46003 -12.60305 5.53843 0.00336 -12.52548 -48.41265 64.17102 73.37622 121.9708 -79.69841 -22.97539 4.71689 -11.38369 21.42992 137.62342 -54.16977 -79.69801 22.97049 16.37901 8.76447 6.3677 -22.17888 2.93285 -5.76988 -13.80632 2.34428 -1.56991 -12.03724 -17.93805 9.56699 8.82743 13.25442
0.24319 0.58381 0.54715 -205.86941 0 -5.22912 1.9947 1.47518 -0.93969 -12.5038 6.17125 0.15473 -12.70964 -49.27182 64.17151 73.70674 121.62609 -79.69841 -22.97538 3.52466 -11.41427 20.75134 137.62569 -53.61842 -79.69888 22.98021 16.51655 8.622 6.86984 -19.38471 2.65863 -5.61351 -12.96444 1.72406 -1.41128 -12.0504 -17.66025 9.83831 9.01088 13.17007
0.23844 0.58356 0.54496 -205.59723 0 -5.32551 1.83404 1.59392 -1.44908 -12.43382 6.73695 0.31839 -12.84859 -50.06803 64.17131 74.0054 121.31097 -79.69841 -22.97537 2.26626 -11.39748 19.8444 137.62464 -52.80968 -79.69815 22.97409 16.50001 8.37722 7.24423 -16.61087 2.56584 -5.469 -12.06979 1.09461 -1.28162 -12.11092 -17.40555 10.12477 9.21898 13.06675
0.23375 0.58334 0.54281 -205.36503 0 -5.43343 1.66651 1.70952 -1.93318 -12.35307 7.33015 0.47542 -13.00783 -50.88574 64.17001 74.31453 120.98364 -79.69841 -22.97536 1.06065 -11.40084 19.06539 137.61923 -52.06639 -79.69703 22.95637 16.55546 8.18458 7.6293 -13.88508 2.38678 -5.31904 -11.20794 0.46841 -1.14007 -12.15404 -17.14607 10.40769 9.42009 12.97706
0.22917 0.58319 0.5408 -205.1263 0 -5.5501 1.46908 1.82797 -2.46787 -12.25984 7.93679 0.63703 -13.17093 -51.73376 64.17427 74.63863 120.65005 -79.69841 -22.97535 -0.24775 -11.40558 18.1828 137.63799 -51.52913 -79.70291 23.02894 16.60062 7.96859 8.22884 -10.90938 2.21773 -5.16597 -10.29854 -0.15373 -0.99491 -12.18139 -16.8611 10.67625 9.60208 12.86516
0.22431 0.58286 0.53845 -204.88166 0 -5.6422 1.3427 1.94255 -2.9039 -12.20058 8.49771 0.79138 -13.31317 -52.50183 64.16729 74.92465 120.33804 -79.69841 -22.97534 -1.35268 -11.39716 17.4645 137.60639 -50.51759 -79.69096 22.89595 16.63022 7.77793 8.34996 -8.46676 2.07258 -5.02375 -9.48262 -0.78729 -0.86279 -12.25239 -16.63522 10.97847 9.83103 12.79576
0.21879 0.58212 0.53524 -204.64233 0 -5.67045 1.39236 2.04 -3.06064 -12.224 8.96713 0.93014 -13.42066 -53.08604 64.125 75.11433 120.06531 -79.69841 -22.97535 -1.90906 -11.37378 17.2289 137.43038 -48.11568 -79.65676 22.32285 16.66891 7.66821 7.12927 -7.43465 1.95643 -4.90495 -8.89837 -1.44075 -0.76758 -12.42944 -16.5677 11.36877 10.17389 12.84391
0.21299 0.5812 0.53166 -204.40059 0 -5.67625 1.51508 2.13477 -3.11714 -12.28173 9.38949 1.06011 -13.5058 -53.58804 64.07218 75.26696 119.81614 -79.69841 -22.97536 -2.25198 -11.33815 17.17117 137.20527 -45.27156 -79.60106 21.52473 16.69507 7.59026 5.4386 -6.94915 1.8568 -4.79752 -8.41667 -2.10693 -0.68251 -12.64856 -16.55926 11.79242 10.56475 12.93625
0.20727 0.58035 0.52821 -204.15936 0 -5.69441 1.61266 2.23393 -3.21878 -12.32628 9.8217 1.18897 -13.59382 -54.11406 64.02713 75.43607 119.56409 -79.69841 -22.97537 -2.67309 -11.30192 17.04981 137.00631 -42.72434 -79.53608 20.74296 16.71799 7.50626 3.99428 -6.25102 1.74684 -4.68802 -7.91698 -2.77343 -0.58786 -12.85069 -16.52292 12.20189 10.94042 13.01156
0.20172 0.57955 0.52495 -203.91601 0 -5.7009 1.67668 2.31861 -3.32207 -12.36081 10.30072 1.33876 -13.713 -54.69488 63.9697 75.60524 119.27811 -79.69841 -22.97538 -3.17731 -11.2882 16.84886 136.78979 -39.76463 -79.54594 20.3053 16.77307 7.38178 2.40699 -5.40298 1.65858 -4.56686 -7.30147 -3.41488 -0.51669 -13.04761 -16.49026 12.60876 11.29016 13.07392
0.19576 0.57861 0.5212 -203.67958 0 -5.72859 1.82828 2.43431 -3.39916 -12.42504 10.67134 1.44402 -13.76008 -55.14201 63.93525 75.7663 119.07041 -79.69841 -22.9754 -3.45524 -11.22754 16.85764 136.5998 -37.56058 -79.40178 19.12031 16.76038 7.3524 1.00812 -4.99613 1.52221 -4.47122 -6.94353 -4.11094 -0.3968 -13.26215 -16.46563 13.02751 11.7035 13.17324
0.18879 0.57729 0.51628 -203.44619 0 -5.80442 2.19743 2.62243 -3.41614 -12.55351 10.75972 1.41616 -13.63492 -55.24812 63.96971 75.91118 119.05224 -79.69842 -22.97543 -3.17275 -11.02146 17.41408 136.48117 -37.56476 -78.77672 15.73663 16.56207 7.56105 0.23598 -5.67887 1.2899 -4.45447 -7.34642 -4.95683 -0.15624 -13.53768 -16.43487 13.48092 12.29226 13.36944
0.18144 0.57584 0.51088 -203.22303 0 -5.90509 2.65305 2.84398 -3.41245 -12.71222 10.74011 1.34543 -13.43431 -55.22184 64.02715 76.05011 119.11558 -79.69842 -22.97548 -2.66671 -10.77211 18.17426 136.39328 -38.34061 -78.00801 11.64722 16.29644 7.86737 -0.33018 -6.78518 1.00225 -4.46074 -7.9908 -5.85555 0.13644 -13.8255 -16.41463 13.94279 12.94028 13.59973
0.17425 0.57447 0.50565 -203.00706 0 -6.00549 3.07336 3.05988 -3.42602 -12.86316 10.76639 1.30307 -13.25432 -55.25059 64.0722 76.19348 119.15543 -79.69842 -22.97551 -2.25533 -10.55541 18.8345 136.30074 -38.75935 -77.3459 8.00182 16.0642 8.14122 -0.98186 -7.69481 0.70946 -4.44923 -8.47662 -6.7302 0.41675 -14.09203 -16.39601 14.39464 13.55453 13.81157
0.16708 0.57301 0.50057 -202.74254 0 -6.06023 3.48019 3.23725 -3.40253 -12.99039 10.80367 1.22532 -13.13078 -55.29606 64.12504 76.32721 119.13983 -79.69843 -22.97556 -1.86802 -10.28426 19.53216 136.16819 -39.20145 -76.51161 3.81567 15.82215 8.36818 -1.6758 -8.64336 0.53632 -4.46955 -9.17426 -7.61064 0.65087 -14.42444 -16.34422 14.87537 14.20269 14.03994
0.15978 0.57172 0.49509 -202.57962 0 -6.21417 3.93372 3.5005 -3.45311 -13.17339 10.79399 1.20814 -12.87259 -55.27894 64.16733 76.48133 119.25763 -79.69843 -22.97559 -1.37751 -10.11535 20.19758 136.12559 -39.76911 -75.99832 0.6067 15.58155 8.71259 -2.23714 -9.60158 0.11177 -4.42825 -9.48397 -8.48503 0.99124 -14.62443 -16.37353 15.29546 14.78946 14.23823
0.15219 0.57091 0.4886 -202.71246 0 -6.65415 4.50218 4.0132 -3.7092 -13.5051 10.67209 1.39517 -12.25682 -55.09785 64.17431 76.68206 119.73348 -79.69843 -22.97556 -0.68105 -10.24853 20.72574 136.33558 -40.63187 -76.43937 0.13145 15.38918 9.38359 -2.38871 -10.50343 -1.09089 -4.2164 -8.68678 -9.38226 1.63365 -14.43286 -16.53828 15.56279 15.22644 14.37114
0.14449 0.5703 0.48173 -202.94418 0 -7.18983 5.11256 4.60754 -4.04148 -13.89081 10.50805 1.63987 -11.50937 -54.86207 64.17003 76.90517 120.33889 -79.69842 -22.97551 0.11494 -10.48422 21.21234 136.63313 -41.57616 -77.20243 0.68626 15.19566 10.16447 -2.42783 -11.39363 -2.52732 -3.94074 -7.48634 -10.26038 2.37733 -14.11055 -16.8016 15.76509 15.59198 14.46679
0.13686 0.56963 0.47505 -203.11871 0 -7.66985 5.69917 5.15084 -4.34246 -14.25088 10.37006 1.84072 -10.82465 -54.66854 64.17132 77.12628 120.87852 -79.69842 -22.97548 0.88035 -10.66732 21.7172 136.88312 -42.38887 -77.7966 0.86639 14.98433 10.87763 -2.57938 -12.27311 -3.79201 -3.69077 -6.45422 -11.11445 3.06051 -13.8643 -17.07385 15.98654 15.96878 14.56317
0.1291 0.56882 0.4683 -203.34423 0 -8.20202 6.31034 5.75337 -4.62997 -14.61874 10.20124 2.11404 -10.12373 -54.40131 64.17151 77.31516 121.45002 -79.69842 -22.97543 1.5922 -10.87519 22.23567 137.16684 -43.60613 -78.48078 0.64577 14.84734 11.66893 -2.4705 -13.23599 -5.3321 -3.45545 -5.49218 -12.11403 3.80621 -13.55278 -17.11324 16.25393 16.44123 14.7322
0.1216 0.56834 0.46162 -203.48826 0 -8.64806 6.87717 6.25245 -4.9622 -14.98019 10.08544 2.25127 -9.42799 -54.27079 64.17101 77.57343 121.98497 -79.69841 -22.9754 2.43583 -11.05519 22.70856 137.40081 -44.01671 -79.05605 1.49047 14.55701 12.32273 -2.87324 -14.01599 -6.35723 -3.1743 -4.28711 -12.79848 4.4456 -13.34032 -17.66896 16.40795 16.69168 14.7368
0.11477 0.56878 0.45518 -203.37228 0 -8.83139 7.32768 6.43701 -5.41379 -15.33314 10.14934 1.99409 -8.76519 -54.58002 64.17133 78.04481 122.38564 -79.69841 -22.97539 3.61916 -11.14303 23.10312 137.47486 -41.94834 -79.25031 5.22825 13.83618 12.56548 -4.7723 -14.29764 -5.86932 -2.78127 -2.49381 -12.67545 4.76113 -13.48228 -19.55439 16.28381 16.39248 14.33293
0.10822 0.56954 0.44884 -203.17353 0 -8.92453 7.7285 6.51585 -5.9048 -15.67348 10.26443 1.59932 -8.11573 -55.02059 64.17123 78.58016 122.74482 -79.69841 -22.97539 4.92859 -11.19721 23.44425 137.49583 -39.10446 -79.32473 9.9679 12.96291 12.66626 -7.17887 -14.39264 -4.86107 -2.34472 -0.47281 -12.225 4.96652 -13.71949 -21.967 16.04493 15.86594 13.76079
0.10159 0.57013 0.44249 -203.01882 0 -9.06023 8.14102 6.64907 -6.36882 -16.00468 10.34143 1.27035 -7.46863 -55.36926 64.17122 79.06875 123.12384 -79.69841 -22.97539 6.18141 -11.26116 23.78551 137.54173 -36.76393 -79.45585 14.11946 12.16446 12.83468 -9.3196 -14.56852 -4.1131 -1.92811 1.43639 -11.88598 5.22627 -13.88071 -24.18842 15.84519 15.40988 13.23789
0.09474 0.57083 0.43597 -202.83761 0 -9.19404 8.60148 6.75952 -6.8753 -16.40038 10.47901 0.92835 -6.77863 -55.85061 64.17126 79.63327 123.50381 -79.69841 -22.97539 7.44268 -11.35394 24.23139 137.58749 -33.79072 -79.58912 18.86834 11.34209 12.99446 -11.61221 -14.76134 -3.27316 -1.50715 3.39973 -11.70349 5.47323 -14.17454 -26.21887 15.69521 15.07972 12.81671
0.08842 0.57138 0.42985 -202.69421 0 -9.30737 8.94912 6.88984 -7.29984 -16.65828 10.50375 0.58159 -6.18627 -56.08919 64.17124 80.05394 123.8696 -79.69841 -22.97539 8.70522 -11.37493 24.4422 137.61957 -31.94854 -79.6847 22.59611 10.53394 13.13629 -13.70132 -14.8741 -2.49771 -1.08759 5.29275 -11.11822 5.71707 -14.21762 -28.75858 15.4188 14.44715 12.15918
0.08349 0.57145 0.42479 -202.64505 0 -9.40034 9.00194 7.11212 -7.50393 -16.53652 10.19917 0.24191 -5.83114 -55.61167 64.17125 80.06672 124.21133 -79.69841 -22.97539 10.0236 -11.22532 24.05916 137.62785 -33.43055 -79.70815 23.26605 9.79777 13.26919 -15.18076 -14.81588 -2.02991 -0.66713 6.98651 -9.49415 5.99762 -13.53656 -32.67829 14.79004 12.92275 10.7599
0.0791 0.57138 0.42014 -202.64234 0 -9.47251 8.94177 7.35541 -7.62086 -16.27696 9.78044 -0.09564 -5.57933 -54.88828 64.17125 79.93159 124.53882 -79.69841 -22.97539 11.32316 -10.99994 23.43372 137.62327 -36.07466 -79.69504 22.86609 9.08237 13.38721 -16.42238 -14.6831 -1.6432 -0.25298 8.58834 -7.47769 6.27465 -12.60281 -37.07004 14.04383 11.12178 9.15184
0.07449 0.57138 0.41533 -202.63734 0 -9.54462 8.93025 7.58145 -7.76729 -16.08127 9.41759 -0.42558 -5.3007 -54.2865 64.17125 79.86065 124.86865 -79.69841 -22.97539 12.57584 -10.79671 22.89173 137.62385 -38.17924 -79.69618 22.94798 8.36008 13.50766 -17.72563 -14.58105 -1.21693 0.15391 10.19939 -5.64493 6.54097 -11.79001 -41.18107 13.37264 9.52328 7.72651
0.06979 0.57134 0.41043 -202.54856 0 -9.65446 8.92884 7.83684 -7.95814 -15.87863 9.03963 -0.79629 -4.93983 -53.64704 64.17125 79.80425 125.21376 -79.69841 -22.97539 14.0657 -10.6465 22.4605 137.62672 -40.30627 -79.70606 23.08933 7.62038 13.6417 -19.25004 -14.48417 -0.78476 0.60596 11.96368 -3.77667 6.85637 -10.95165 -45.60064 12.60739 7.59844 5.92943
0.0654 0.57135 0.4058 -202.64828 0 -9.68115 8.87965 8.03684 -8.03484 -15.65948 8.66537 -1.08004 -4.77168 -53.02665 64.17125 79.68221 125.52518 -79.69841 -22.97539 15.05707 -10.36547 21.74187 137.62096 -42.67102 -79.68712 22.83282 6.92554 13.74553 -20.24141 -14.36332 -0.39002 0.96082 13.37443 -1.89513 7.06901 -10.10906 -49.46949 12.00998 6.28334 4.85295
0.06167 0.57155 0.40177 -203.24129 0 -9.49036 8.73075 8.08465 -7.82105 -15.41479 8.32845 -1.12152 -5.13639 -52.51177 64.17125 79.40902 125.73824 -79.69842 -22.97543 14.66175 -9.7654 20.28935 137.60354 -45.42223 -79.62437 21.79349 6.33611 13.77165 -19.89806 -14.17793 -0.0884 1.05773 13.91297 -0.06038 7.00832 -9.28595 -51.81129 11.92006 6.78405 5.87223
0.05823 0.57181 0.39801 -204.02579 0 -9.21585 8.53702 8.07556 -7.49478 -15.16076 7.9987 -1.07537 -5.6868 -52.02459 64.17126 79.07525 125.91953 -79.69842 -22.97547 13.76801 -9.03194 18.55752 137.57376 -48.37133 -79.52745 20.37779 5.79446 13.76807 -19.01066 -13.9752 0.17746 1.05528 14.084 1.76984 6.84298 -8.4739 -53.55855 12.00081 7.89732 7.614
